<svg xmlns="http://www.w3.org/2000/svg" viewBox="0 0 466.85 615.99"><defs><style>.cls-1{fill:#fff;}.cls-2{fill:none;stroke:#fff;stroke-miterlimit:10;stroke-width:6.94px;}</style></defs><title>Zasób 11</title><g id="Warstwa_2" data-name="Warstwa 2"><g id="Warstwa_1-2" data-name="Warstwa 1"><path class="cls-1" d="M14.08,485.3,33.4,528.44l19.32-43.06H61.3v56.37H53.43l-.08-41.13-18,41.13h-4L13.29,500.3v41.45H5.5V485.38Z"/><path class="cls-1" d="M79.83,485.46v56.29H71.64V485.46Z"/><path class="cls-1" d="M88.58,530.62c5.09,2.34,10.65,5.48,16.54,5.48,8.35,0,12.4-2.82,12.4-8.47,0-3.87-1.83-5.89-5.25-7.74a80.21,80.21,0,0,0-8.19-3.63c-5.33-2.18-9.06-4.35-11.37-7.18a13.7,13.7,0,0,1-3.5-9.84c0-6,3.34-10.65,9.06-13.14a23.67,23.67,0,0,1,9.86-1.94c6,0,11.61,1.94,16.38,4.11v8.31c-4.61-2.18-10.34-5.4-15.1-5.4-7.63,0-11.77,2.9-11.77,8.06,0,3.55,1.75,5.8,5.25,7.66a71.89,71.89,0,0,0,7.63,3.47c7.55,3.14,11.53,5.56,13.83,9.59a14.63,14.63,0,0,1,1.67,7.58c0,9.92-6.76,15.4-20.43,15.4-6.36,0-13-2.66-17-4.6Z"/><path class="cls-1" d="M143.67,485.3v56.37l-8.9.08V485.38Zm25,.08h9.86L153.37,513l26.71,28.71h-9.86L144.07,513Z"/><path class="cls-1" d="M212.84,485.38,235,541.74h-8.27l-5.64-14.52H196.54l-5.33,14.52h-8.35L205,485.38Zm-3.89,8.31-10,25.89h20Z"/><path class="cls-1" d="M230.65,493.2v-7.82h42.69v7.82H256.09v48.55H247.9V493.2Z"/><path class="cls-1" d="M278.35,529a30.59,30.59,0,0,1-3.82-15.32c0-11.78,5.25-20.64,14.31-25.73,4.45-2.5,9.38-3.31,14.94-3.31,11.21,0,20.27,4.6,25.36,13.71A30.39,30.39,0,0,1,333,513.68c0,11.69-5.25,20.72-14.31,25.72a32.37,32.37,0,0,1-15.18,3.31C292.27,542.71,283.44,538.12,278.35,529Zm46.74-15.24c0-8.87-4.21-15.64-10.57-19.35-3.18-1.85-6.68-2.09-10.65-2.09-8.11,0-14.63,3-18.44,9.76a23.44,23.44,0,0,0-3.18,11.61c0,9,4.13,15.56,10.65,19.27,3.34,1.69,6.92,2,10.89,2,8,0,14.55-3,18.29-9.68a23.08,23.08,0,0,0,3.1-11.53Z"/><path class="cls-1" d="M349.51,485.38l28.3,43.22V485.38H386v56.37h-7.79l-28.3-43v43H341.8V485.38Z"/><path class="cls-1" d="M404.53,485.46v56.29h-8.19V485.46Z"/><path class="cls-1" d="M413.43,513.44c0-11.85,5.09-20.89,14.15-25.73a30.48,30.48,0,0,1,15.18-3.63c7.63,0,14,1.86,19.08,5.89v9.11a27,27,0,0,0-18.52-7.42c-8.74,0-15.5,3.55-19.24,10.24-1.83,3.39-2.15,7.1-2.15,11.53,0,9,3.34,15.8,10,19.35a25.26,25.26,0,0,0,11.45,2.66c8,0,13.75-2.9,19.16-7.66v9c-4.77,4-11.37,6-19.87,6-11.61,0-20.59-4.84-25.68-14a31.18,31.18,0,0,1-3.74-15.32Z"/><path class="cls-1" d="M4,603.33c5.16,2.34,10.81,5.48,16.77,5.48,8.47,0,12.58-2.82,12.58-8.47,0-3.87-1.85-5.89-5.32-7.74A81.64,81.64,0,0,0,19.69,589c-5.4-2.18-9.19-4.36-11.53-7.18A13.59,13.59,0,0,1,4.61,572c0-6,3.39-10.65,9.19-13.14a24.31,24.31,0,0,1,10-1.94c6.13,0,11.77,1.94,16.61,4.11v8.3c-4.68-2.18-10.48-5.4-15.32-5.4-7.74,0-11.93,2.9-11.93,8.06,0,3.55,1.77,5.81,5.32,7.66a73.78,73.78,0,0,0,7.74,3.47c7.66,3.14,11.69,5.56,14,9.6a14.47,14.47,0,0,1,1.69,7.58c0,9.92-6.85,15.4-20.72,15.4-6.45,0-13.14-2.66-17.26-4.59Z"/><path class="cls-1" d="M83,565.92V558.1h43.3v7.82H108.8v48.54h-8.3V565.92Z"/><path class="cls-1" d="M168.57,558.1h8.22v35.64c0,9.76,5.56,14.11,15.08,14.11s15-4.36,15-14.11V558.1h8.22v35.32c0,14-7.74,22.58-23.22,22.58s-23.3-8.55-23.3-22.58Z"/><path class="cls-1" d="M278.74,558c12.34,0,21.21,4.51,26,13.06,2.5,4.19,3.39,9.11,3.39,14.84,0,19-10.89,28.55-30.56,28.55h-17V558.1Zm-1.21,49.51c15.32,0,21.77-7.34,21.77-21.53,0-13.06-6.61-21-20.48-21h-9.6v42.58Z"/><path class="cls-1" d="M361,558.18v56.28H352.7V558.18Z"/><path class="cls-1" d="M409.15,601.72a30.25,30.25,0,0,1-3.87-15.32c0-11.77,5.32-20.64,14.51-25.72,4.52-2.5,9.52-3.31,15.16-3.31,11.37,0,20.56,4.6,25.72,13.71a30,30,0,0,1,3.87,15.32c0,11.69-5.32,20.72-14.51,25.72a33.23,33.23,0,0,1-15.4,3.3C423.26,615.43,414.31,610.83,409.15,601.72Zm47.42-15.24c0-8.87-4.27-15.64-10.72-19.35-3.23-1.85-6.77-2.1-10.8-2.1-8.23,0-14.84,3-18.71,9.76a23.18,23.18,0,0,0-3.23,11.61c0,8.95,4.19,15.56,10.8,19.27,3.39,1.69,7,2,11,2,8.14,0,14.76-3,18.55-9.67a22.83,22.83,0,0,0,3.14-11.53Z"/><rect class="cls-2" x="3.47" y="3.47" width="459.91" height="459.91"/><path class="cls-1" d="M157.47,83.1l111.12,30.24v246.6l-13.46,2.84c-3.95-10.81-16.51-41.9-33.11-54.45-9.71-7.34-17.63-11.67-27.52-19.58S172.73,267,170.43,257.37a28.79,28.79,0,0,1,.72-15A24.35,24.35,0,0,1,178.49,231c.46-.43.79-.72,1.23-1.1l1.38-1.07a19.6,19.6,0,0,1,2.7-1.62,37.37,37.37,0,0,1,6.46-2.42,32.83,32.83,0,0,1,12.69-1.09,12.14,12.14,0,0,1,4.59,1.43,5.92,5.92,0,0,1,1.5,1.22l.31.37a3.13,3.13,0,0,0,.21.26l.12.13.15.37.29.74c.06.23,0-.2,0-.14l0,.07,0,.13.08.27a3.55,3.55,0,0,1,.14.54,9.08,9.08,0,0,1,.16,1.12,13.51,13.51,0,0,1,0,2.33,18.42,18.42,0,0,1-1,4.68c-.51,1.44-3.22,5.57-5.91,9.49a1.47,1.47,0,0,0,2.17,1.94c3.29-2.84,6.76-6.17,8.61-9,2-3.28,4.09-7.38,3.32-13.37l-.11-.79-.06-.41-.17-.62c-.12-.41-.25-.84-.38-1.24l-.46-1.08a14.64,14.64,0,0,0-2.68-3.95,20.82,20.82,0,0,0-7.79-5.07,41.3,41.3,0,0,0-18-2.11,44.89,44.89,0,0,0-9.72,1.89,35.67,35.67,0,0,0-5.16,2.08c-.46.25-.85.42-1.38.74l-1,.54c-.77.47-1.66,1-2.38,1.51a40.56,40.56,0,0,0-14.86,18A44.67,44.67,0,0,0,150.47,248a55.48,55.48,0,0,0,.14,12.29c.91,8.07,2.54,15.49,6.37,23,5.83,11.43,35,44.33,37.66,60.19,1.64,9.63,2.08,23.52,2.18,32l-39.35,8.65H316.59V83.1Z"/><circle class="cls-1" cx="251.45" cy="233.39" r="7.58"/></g></g></svg>